<svg xmlns="http://www.w3.org/2000/svg" viewBox="0 0 220 150" role="img" aria-label="Personal Assistant Academy">
  <defs>
    <linearGradient id="g" x1="0" y1="0" x2="0" y2="1">
      <stop offset="0%" stop-color="#e53935"/>
      <stop offset="100%" stop-color="#9f1520"/>
    </linearGradient>
  </defs>
  <!-- Linked PA monogram -->
  <path fill="url(#g)" d="M34 128V28h52c30 0 50 15 50 40 0 18-10 31-28 37l34 23h-30l-28-20H58v20H34zm24-44h26c14 0 22-7 22-16s-8-16-22-16H58v32z"/>
  <path fill="url(#g)" d="M148 128V28h26v76h40v24h-66z"/>
  <path fill="#c9a227" d="M194 36c0 8-6 14-14 14s-14-6-14-14 6-14 14-14 14 6 14 14z"/>
  <path fill="#fff" d="M186 36c0 3.5-2.7 6.2-6 6.2s-6-2.7-6-6.2 2.7-6.2 6-6.2 6 2.7 6 6.2z" opacity=".35"/>
</svg>
